<svg data-v-5dea65dc="" data-v-4692dd0f="" width="48" height="42" viewBox="0 0 48 42" fill="none" xmlns="http://www.w3.org/2000/svg" preserveAspectRatio="none" class="w-12 h-[41.14px]"><path data-v-5dea65dc="" d="M7.30831 0V10.1888H0V41.1429H31.8556V32.8478H48V0H7.30831ZM9.64561 2.28141H45.6513V10.1888H9.64561V2.28141ZM31.8556 12.2487H45.6513V20.4219H31.8556V12.2487ZM14.9017 38.8504H2.34869V26.801H14.9131V38.8504H14.9017ZM14.9017 24.5196H2.34869V12.4591H14.9131V24.5196H14.9017ZM29.5183 38.8504H17.2504V26.801H29.5183V38.8504ZM29.5183 24.5196H17.2504V12.4591H29.5183V24.5196ZM31.8556 30.5664V22.4929H45.6513V30.5664H31.8556Z" fill="white"></path> <path data-v-5dea65dc="" d="M7.20614 22.7032H9.63465V19.6023H12.4622V17.343H9.63465V14.375H7.20614V17.343H4.36719V19.6023H7.20614V22.7032Z" fill="white"></path> <path data-v-5dea65dc="" d="M27.569 17.4648H19.189V19.5358H27.569V17.4648Z" fill="white"></path> <path data-v-5dea65dc="" d="M4.89137 34.7634L6.53318 36.3693L8.53983 34.4201L10.7973 36.6129L12.5189 34.9406L10.2614 32.7478L12.2567 30.8097L10.6149 29.2149L8.61964 31.153L6.45337 29.0488L4.73175 30.7211L6.89802 32.8253L4.89137 34.7634Z" fill="white"></path> <path data-v-5dea65dc="" d="M27.569 30.1562H19.189V32.2272H27.569V30.1562Z" fill="white"></path> <path data-v-5dea65dc="" d="M27.569 33.4463H19.189V35.5173H27.569V33.4463Z" fill="white"></path></svg>