<svg width="20" height="20" viewBox="0 0 20 20" fill="none" xmlns="http://www.w3.org/2000/svg">
<g clip-path="url(#clip0_2514_9880)">
<path d="M5.96533 6.58621V3.17241M5.96533 3.17241C5.96533 4.37221 8.88319 5.34483 12.4826 5.34483C16.082 5.34483 18.9998 4.37221 18.9998 3.17241M5.96533 3.17241C5.96533 1.97262 8.88319 1 12.4826 1C16.082 1 18.9998 1.97262 18.9998 3.17241M18.9998 3.17241V8.13793C18.9998 8.6747 18.4159 9.16592 17.4481 9.54503" stroke="#353E5C" stroke-width="1.5" stroke-linecap="round" stroke-linejoin="round"/>
<path d="M14.0345 11.8638V16.8293C14.0345 18.0291 11.1166 19.0018 7.51724 19.0018C3.91787 19.0018 1 18.0291 1 16.8293V11.8638M14.0345 11.8638C14.0345 13.0636 11.1166 14.0362 7.51724 14.0362C3.91787 14.0362 1 13.0636 1 11.8638M14.0345 11.8638C14.0345 10.664 11.1166 9.69141 7.51724 9.69141C3.91787 9.69141 1 10.664 1 11.8638" stroke="#353E5C" stroke-width="1.5" stroke-linecap="round" stroke-linejoin="round"/>
</g>
<defs>
<clipPath id="clip0_2514_9880">
<rect width="20" height="20" fill="white"/>
</clipPath>
</defs>
</svg>
