<svg width="20" height="20" viewBox="0 0 20 20" fill="none" xmlns="http://www.w3.org/2000/svg">
<g clip-path="url(#clip0_2514_9839)">
<path d="M10 18.5C14.6944 18.5 18.5 14.6944 18.5 10C18.5 5.30558 14.6944 1.5 10 1.5C5.30558 1.5 1.5 5.30558 1.5 10C1.5 14.6944 5.30558 18.5 10 18.5Z" stroke="#353E5C" stroke-width="1.5" stroke-linecap="round" stroke-linejoin="round"/>
<path d="M12.6377 6.19141H9.26699C8.21475 6.19141 7.36182 7.04438 7.36182 8.09658C7.36182 9.14882 8.21475 10.0018 9.26699 10.0018H10.7325C11.7847 10.0018 12.6377 10.8547 12.6377 11.9069C12.6377 12.9592 11.7847 13.8121 10.7325 13.8121H7.36182" stroke="#353E5C" stroke-width="1.5" stroke-linecap="round" stroke-linejoin="round"/>
<path d="M10 5.01562V5.60183" stroke="#353E5C" stroke-width="1.5" stroke-linecap="round" stroke-linejoin="round"/>
<path d="M10 14.3984V14.9846" stroke="#353E5C" stroke-width="1.5" stroke-linecap="round" stroke-linejoin="round"/>
</g>
<defs>
<clipPath id="clip0_2514_9839">
<rect width="20" height="20" fill="white"/>
</clipPath>
</defs>
</svg>
