<svg width="20" height="20" viewBox="0 0 20 20" fill="none" xmlns="http://www.w3.org/2000/svg">
<path d="M8.74589 2.33609H4.84426C2.99728 2.33609 1.5 3.83331 1.5 5.68035L1.5 15.1557C1.5 17.0027 2.99728 18.5 4.84426 18.5L14.3197 18.5C16.1667 18.5 17.6639 17.0027 17.6639 15.1557V13.4836" stroke="#242F9B" stroke-width="1.5" stroke-linecap="round" stroke-linejoin="round"/>
<path d="M17.7024 2H13.9837C13.7732 2.00275 13.5721 2.08759 13.4232 2.23644C13.2744 2.38529 13.1896 2.58639 13.1868 2.79688C13.1896 3.00736 13.2744 3.20846 13.4232 3.35731C13.5721 3.50616 13.7732 3.591 13.9837 3.59375H15.7793L10.233 9.14C10.0838 9.28941 10 9.49195 10 9.70312C10 9.9143 10.0838 10.1168 10.233 10.2663C10.3825 10.4155 10.585 10.4993 10.7962 10.4993C11.0073 10.4993 11.2099 10.4155 11.3593 10.2663L16.9055 4.72V6.51562C16.9055 6.72697 16.9895 6.92966 17.1389 7.0791C17.2884 7.22854 17.4911 7.3125 17.7024 7.3125C17.9138 7.3125 18.1165 7.22854 18.2659 7.0791C18.4153 6.92966 18.4993 6.72697 18.4993 6.51562V2.79688C18.4965 2.58639 18.4117 2.38529 18.2629 2.23644C18.114 2.08759 17.9129 2.00275 17.7024 2Z" fill="#242F9B"/>
</svg>
