<svg width="22" height="16" viewBox="0 0 22 16" fill="none" xmlns="http://www.w3.org/2000/svg">
<path fill-rule="evenodd" clip-rule="evenodd" d="M18.5508 0.417969C20.3227 0.417969 21.7667 1.80766 21.8314 3.54613L21.8337 3.66797V12.3346C21.8337 14.0888 20.4299 15.5183 18.6739 15.5824L18.5508 15.5846H3.44982C1.67797 15.5846 0.233977 14.1949 0.169257 12.4565L0.166992 12.3346V3.66797C0.166992 1.91384 1.57072 0.484284 3.32675 0.42021L3.44982 0.417969H18.5508ZM19.6446 6.01122H2.355L2.35554 12.3346C2.35554 12.9057 2.80194 13.3736 3.36815 13.415L3.44982 13.418H18.5508C19.1277 13.418 19.6003 12.976 19.6421 12.4155L19.6451 12.3346L19.6446 6.01122ZM17.0188 8.0013C17.6232 8.0013 18.1131 8.48633 18.1131 9.08464V10.168C18.1131 10.7663 17.6232 11.2513 17.0188 11.2513H15.9246C15.3202 11.2513 14.8303 10.7663 14.8303 10.168V9.08464C14.8303 8.48633 15.3202 8.0013 15.9246 8.0013H17.0188ZM11.5475 8.54297C12.1518 8.54297 12.6417 9.02799 12.6417 9.6263C12.6417 10.2246 12.1518 10.7096 11.5475 10.7096H4.98181C4.37745 10.7096 3.88753 10.2246 3.88753 9.6263C3.88753 9.02799 4.37745 8.54297 4.98181 8.54297H11.5475ZM18.5508 2.58464H3.44982C2.87294 2.58464 2.40032 3.02657 2.35855 3.58712L2.35554 3.66797L2.355 4.27789H19.6446L19.6451 3.66797C19.6451 3.09686 19.1987 2.62896 18.6325 2.58761L18.5508 2.58464Z" fill="#F22C15"/>
</svg>
