<svg width="24" height="24" viewBox="0 0 24 24" fill="none" xmlns="http://www.w3.org/2000/svg">
<path fill-rule="evenodd" clip-rule="evenodd" d="M13 2.5C14.6569 2.5 16 3.84315 16 5.5H19C20.6569 5.5 22 6.84315 22 8.5V18.5C22 20.1569 20.6569 21.5 19 21.5H5C3.34315 21.5 2 20.1569 2 18.5V8.5C2 6.84315 3.34315 5.5 5 5.5H8C8 3.84315 9.34315 2.5 11 2.5H13ZM11 14C10.7436 14 10.5322 13.807 10.5034 13.5583L10.4995 13.4895L3.9995 10.9615L4 18.5C4 19.0523 4.44772 19.5 5 19.5H19C19.5523 19.5 20 19.0523 20 18.5V10.9615L13.4995 13.4895L13.5 13.5C13.5 13.7761 13.2761 14 13 14H11ZM19 7.5H5C4.44772 7.5 4 7.94772 4 8.5V8.81593L10.5221 11.3526C10.585 11.1484 10.7752 11 11 11H13C13.2248 11 13.415 11.1484 13.4779 11.3526L20 8.81593V8.5C20 7.94772 19.5523 7.5 19 7.5ZM13 4.5H11C10.4477 4.5 10 4.94772 10 5.5H14C14 4.94772 13.5523 4.5 13 4.5Z" fill="#F22C15"/>
</svg>
