<svg data-v-1ff282fa="" data-v-bf67ba24="" width="35" height="36" viewBox="0 0 35 36" fill="none" xmlns="http://www.w3.org/2000/svg" preserveAspectRatio="xMidYMid meet" class="w-[34.91px] h-[34.91px] tw-mr-5"><rect data-v-1ff282fa="" y="0.811523" width="34.9056" height="34.9056" fill="#DF0914"></rect> <path data-v-1ff282fa="" d="M26.831 11.4264V11.4082H8.11092L8.03213 11.4264H6.85645V25.3209H28.0491V11.4264H26.831ZM26.025 12.5641L25.8735 12.6911C23.0676 15.1844 20.2981 17.6474 17.5104 20.1286L17.4619 20.177L17.4134 20.1286C15.8802 18.767 14.3469 17.4054 12.8137 16.0437C11.5653 14.9302 10.3108 13.8167 9.05025 12.6911L8.89875 12.5641H26.025ZM7.97153 23.4993V13.2418L8.09879 13.3568C9.95929 15.015 11.7955 16.6489 13.6621 18.3071L13.7288 18.3615L13.6621 18.416C11.8077 20.0681 9.96535 21.7141 8.09879 23.3844L7.97153 23.4993ZM8.70482 24.2497L9.03814 23.9472C9.75324 23.3117 10.4562 22.6824 11.1592 22.0591C12.2682 21.0726 13.3652 20.0923 14.4681 19.1059L14.5772 19.0211L14.6681 19.1059C15.2499 19.6203 15.8256 20.1346 16.4377 20.6732L17.4619 21.581C18.377 20.764 19.2981 19.941 20.2254 19.124L20.3344 19.0393L20.3769 19.0817L22.4737 20.9456C23.1161 21.5084 23.7524 22.0772 24.3948 22.64L26.2189 24.2497H8.70482ZM26.9522 23.5054L26.831 23.3904C25.6917 22.3798 24.5645 21.3813 23.4312 20.3767L21.1768 18.3736L21.2435 18.3192C22.4192 17.2722 23.5888 16.2313 24.7645 15.1844L26.9522 13.2358V23.5054Z" fill="white"></path></svg>