<svg data-v-d45be9d6="" data-v-bf67ba24="" width="35" height="36" viewBox="0 0 35 36" fill="none" xmlns="http://www.w3.org/2000/svg" preserveAspectRatio="xMidYMid meet" class="w-[34.91px] h-[34.91px] tw-mr-5"><rect data-v-d45be9d6="" y="0.905273" width="34.9056" height="34.9056" fill="#DF0914"></rect> <path data-v-d45be9d6="" d="M24.8596 13.968C24.5143 12.496 23.8835 11.2627 23.0004 10.2946C22.1106 9.32655 20.942 8.61044 19.5409 8.16619C18.6843 7.89433 17.8543 7.76172 17.0509 7.76172C15.2116 7.76172 13.4918 8.45794 11.9114 9.857C9.14916 12.3037 8.525 16.5805 10.5037 19.5908C11.2209 20.6914 11.9845 21.8385 12.9075 23.1978L15.1651 26.4137C15.8092 27.3552 16.5064 28.3432 17.0973 29.1853C17.1173 29.2118 17.1372 29.2383 17.1571 29.2715C17.1704 29.2914 17.1837 29.3113 17.2036 29.3378L17.7481 28.5554C18.4785 27.5144 19.1956 26.4932 19.9127 25.4589L23.2926 20.5522C23.3457 20.4726 23.3922 20.3997 23.4453 20.3201C23.4918 20.2406 23.5449 20.161 23.5914 20.0881C23.6246 20.035 23.6578 19.982 23.691 19.9289C23.7507 19.8361 23.8038 19.7433 23.8636 19.6571C24.9991 17.9198 25.3311 16.0036 24.8596 13.968ZM22.5024 19.0404C21.1013 21.0959 19.8596 22.8994 18.7109 24.5637C18.4918 24.882 18.2726 25.2003 18.0469 25.5185C17.9406 25.6777 17.8278 25.8302 17.7149 25.9893C17.5887 26.175 17.4559 26.3606 17.3298 26.5463L17.2102 26.7253L17.0442 26.4999C16.7919 26.1286 16.5263 25.7506 16.2673 25.3859C15.9353 24.9152 15.6166 24.4576 15.2979 24.0068C15.0389 23.6222 14.78 23.2509 14.521 22.8729L14.1624 22.3557C13.9632 22.0574 13.7507 21.759 13.5449 21.454C13.0203 20.6914 12.4758 19.909 11.9513 19.1266C11.367 18.2447 11.0549 17.5154 10.9353 16.7661C10.3643 13.2452 12.6286 10.0029 16.0881 9.37959C19.4679 8.77621 22.6883 10.9312 23.4054 14.2929C23.7773 16.0235 23.4718 17.6215 22.5024 19.0404Z" fill="white"></path> <path data-v-d45be9d6="" d="M17.1968 12.2178H17.1901C16.2539 12.2178 15.384 12.5758 14.74 13.2323C14.0693 13.8953 13.7041 14.7971 13.7041 15.7585C13.7107 16.6736 14.0759 17.5422 14.74 18.1986C15.3973 18.8484 16.2738 19.2065 17.2034 19.2065C19.1689 19.1998 20.6961 17.6549 20.6961 15.6922C20.6961 13.776 19.1291 12.2178 17.1968 12.2178ZM17.2034 18.0328C15.9485 18.0328 14.8794 16.9719 14.8728 15.7187C14.8728 14.4656 15.9352 13.398 17.1901 13.3914H17.2101C17.8077 13.3914 18.392 13.6301 18.8369 14.0744C19.2884 14.5252 19.5341 15.1087 19.5275 15.7254C19.5208 16.9786 18.4584 18.0328 17.2034 18.0328Z" fill="white"></path></svg>