<svg width="109" height="50" viewBox="0 0 109 50" fill="none" xmlns="http://www.w3.org/2000/svg" class="w-[109px] h-[48.86px]" preserveAspectRatio="none">
    <path d="M8.86168 39.583L5.60206 46.159L2.28965 39.583H0V49.2134H1.48794V42.8626L4.72447 49.2134H5.62845L8.7594 42.9332V49.2134H11.1018V39.583H8.86168Z" fill="white"></path>
    <path d="M19.8639 46.0534C19.7385 46.5776 19.5571 47.0279 19.3162 47.4076C19.0754 47.7873 18.7785 48.083 18.4188 48.298C18.0592 48.5131 17.6501 48.6206 17.1816 48.6206C16.7098 48.6206 16.2974 48.5131 15.9378 48.298C15.5782 48.083 15.2813 47.7873 15.0404 47.4076C14.7996 47.0279 14.6214 46.5776 14.4961 46.0534C14.374 45.5292 14.3113 44.958 14.3113 44.3397C14.3113 43.7281 14.3707 43.1703 14.4961 42.6629C14.6181 42.1555 14.7996 41.7187 15.0404 41.3558C15.2813 40.9929 15.5782 40.7073 15.9378 40.5023C16.2974 40.3007 16.7098 40.1965 17.1816 40.1965C17.6468 40.1965 18.0592 40.2973 18.4188 40.5023C18.7752 40.7073 19.0754 40.9895 19.3162 41.3558C19.5571 41.7221 19.7385 42.1555 19.8639 42.6629C19.9893 43.1703 20.0519 43.7281 20.0519 44.3397C20.0486 44.958 19.9893 45.5292 19.8639 46.0534ZM21.078 40.7711C20.5864 40.3343 20.0058 39.9949 19.3426 39.753C18.6762 39.5077 17.9569 39.3867 17.1849 39.3867C16.4129 39.3867 15.6904 39.5077 15.024 39.7496C14.3575 39.9916 13.7768 40.3309 13.2886 40.7644C12.797 41.2012 12.4143 41.7221 12.1338 42.3303C11.8534 42.9385 11.7148 43.6072 11.7148 44.3363C11.7148 45.079 11.8534 45.7611 12.1338 46.3861C12.4143 47.0077 12.8003 47.5454 13.2886 47.999C13.7768 48.4526 14.3575 48.8021 15.024 49.0541C15.6904 49.3061 16.4129 49.4305 17.1849 49.4305C17.6963 49.4305 18.1912 49.3733 18.6597 49.2624C19.1315 49.1516 19.5703 48.9903 19.9761 48.7819C20.3819 48.5736 20.7514 48.3182 21.0813 48.0225C21.4112 47.7235 21.6917 47.3841 21.9292 47.0077C22.1667 46.628 22.3482 46.2147 22.4736 45.7611C22.5989 45.3108 22.6649 44.8269 22.6649 44.3162C22.6649 43.5971 22.5231 42.9351 22.2426 42.3303C21.9556 41.7254 21.5696 41.2046 21.078 40.7711Z" fill="white"></path>
    <path d="M29.9691 45.9987C29.7943 46.4825 29.5501 46.8891 29.2466 47.2218C28.9398 47.5511 28.5835 47.8065 28.1777 47.9745C27.7719 48.1459 27.3364 48.2299 26.8745 48.2299H25.6241V40.5585H26.8745C27.3628 40.5585 27.8147 40.6559 28.2271 40.8474C28.6395 41.039 28.9926 41.3044 29.2928 41.6404C29.5897 41.9765 29.8207 42.3763 29.9889 42.8367C30.1572 43.3004 30.2397 43.7977 30.2397 44.3387C30.2331 44.9604 30.1473 45.5148 29.9691 45.9987ZM31.1469 40.8205C30.6059 40.4173 29.9625 40.1115 29.2103 39.8998C28.4614 39.6882 27.6399 39.584 26.7458 39.584H23.2684V49.2144H27.1186C28.0358 49.2144 28.8507 49.0867 29.56 48.8313C30.2694 48.576 30.8698 48.2265 31.3581 47.7796C31.8464 47.3327 32.2159 46.8152 32.4699 46.2204C32.724 45.6257 32.8526 44.9906 32.8526 44.3152C32.8526 43.5625 32.7009 42.8938 32.4039 42.3058C32.107 41.7177 31.6847 41.2238 31.1469 40.8205Z" fill="white"></path>
    <path d="M33.4637 39.583V49.2134H40.3426V48.2255H35.8161V44.4049H40.3426V43.5817H35.8161V40.4063H40.3426V39.583H33.4637Z" fill="white"></path>
    <path d="M60.8376 39.583H58.4918V49.2134H60.8376V39.583Z" fill="white"></path>
    <path d="M63.193 39.583V40.4063H66.512V49.2134H68.8544V40.4063H71.3717L71.0946 39.8216L70.9824 39.583H63.193Z" fill="white"></path>
    <path d="M80.1214 39.583L77.1818 46.2396L74.0178 39.583H72.167H71.5896L76.2217 49.3579H77.317L81.6258 39.583H80.1214Z" fill="white"></path>
    <path d="M88.8237 46.0534C88.6984 46.5776 88.5169 47.0279 88.2761 47.4076C88.0352 47.7873 87.7383 48.083 87.3787 48.298C87.0191 48.5131 86.61 48.6206 86.1415 48.6206C85.6697 48.6206 85.2573 48.5131 84.8977 48.298C84.5381 48.083 84.2411 47.7873 84.0003 47.4076C83.7594 47.0279 83.5813 46.5776 83.4559 46.0534C83.3338 45.5292 83.2712 44.958 83.2712 44.3397C83.2712 43.7281 83.3305 43.1703 83.4559 42.6629C83.578 42.1555 83.7594 41.7187 84.0003 41.3558C84.2411 40.9929 84.5381 40.7073 84.8977 40.5023C85.2573 40.3007 85.6697 40.1965 86.1415 40.1965C86.6067 40.1965 87.0191 40.2973 87.3787 40.5023C87.735 40.7073 88.0352 40.9895 88.2761 41.3558C88.5169 41.7221 88.6984 42.1555 88.8237 42.6629C88.9491 43.1703 89.0118 43.7281 89.0118 44.3397C89.0085 44.958 88.9458 45.5292 88.8237 46.0534ZM90.0378 40.7711C89.5463 40.3343 88.9689 39.9949 88.3025 39.753C87.636 39.5077 86.9168 39.3867 86.1448 39.3867C85.3728 39.3867 84.6535 39.5077 83.9838 39.7496C83.3173 39.9916 82.7367 40.3309 82.2484 40.7644C81.7568 41.2012 81.3741 41.7221 81.0937 42.3303C80.8133 42.9385 80.6747 43.6072 80.6747 44.3363C80.6747 45.079 80.8133 45.7611 81.0937 46.3861C81.3741 47.0077 81.7601 47.5454 82.2484 47.999C82.7367 48.4526 83.3173 48.8021 83.9838 49.0541C84.6535 49.3061 85.3728 49.4305 86.1448 49.4305C86.6594 49.4305 87.151 49.3733 87.6195 49.2624C88.0913 49.1516 88.5301 48.9903 88.9359 48.7819C89.345 48.5736 89.7112 48.3182 90.0411 48.0225C90.3711 47.7235 90.6548 47.3841 90.889 47.0077C91.1233 46.628 91.3047 46.2147 91.4334 45.7611C91.5621 45.3108 91.6248 44.8269 91.6248 44.3162C91.6248 43.5971 91.4829 42.9351 91.2025 42.3303C90.9154 41.7254 90.5294 41.2046 90.0378 40.7711Z" fill="white"></path>
    <path d="M55.829 39.583V45.7053L50.3688 39.583H48.8644V47.4493L49.93 48.8875L50.1742 49.2134H50.3556V42.5971L56.2876 49.3579H57.2972V39.583H55.829Z" fill="white"></path>
    <path d="M45.6649 43.0009C45.5626 43.2193 45.424 43.4041 45.2459 43.552C45.0677 43.7032 44.8566 43.8174 44.6091 43.8981C44.365 43.9787 44.0978 44.0191 43.8107 44.0191H43.3027V40.5244H44.2561C44.4838 40.5244 44.6916 40.5681 44.8863 40.6521C45.0776 40.7361 45.2426 40.8571 45.3812 41.0117C45.5164 41.1662 45.6253 41.3477 45.7012 41.5627C45.7771 41.7744 45.8167 42.0096 45.8167 42.265C45.8167 42.5372 45.7672 42.7825 45.6649 43.0009ZM46.0773 44.6037C46.4006 44.4996 46.7008 44.3685 46.9714 44.2106C47.2419 44.0527 47.4729 43.8712 47.6609 43.6662C47.8523 43.4613 48.0007 43.2361 48.1063 42.9908C48.2119 42.7489 48.2647 42.4868 48.2647 42.2146C48.2647 41.8383 48.1888 41.4854 48.0337 41.1629C47.8787 40.8403 47.6444 40.5647 47.3376 40.3295C47.0308 40.0943 46.6448 39.9129 46.1796 39.7818C45.7144 39.6508 45.1733 39.5869 44.5498 39.5869H40.947V49.2173H43.2994V44.8625H43.7151L46.9285 49.2173H48.8618H49.4854L46.0773 44.6037Z" fill="white"></path>
    <path d="M96.9449 43.0009C96.8459 43.2193 96.7041 43.4041 96.5259 43.552C96.3478 43.7032 96.1333 43.8174 95.8892 43.8981C95.645 43.9787 95.3778 44.0191 95.0908 44.0191H94.5827V40.5244H95.5361C95.7638 40.5244 95.9716 40.5681 96.1663 40.6521C96.3577 40.7361 96.5259 40.8571 96.6612 41.0117C96.7964 41.1662 96.9053 41.3477 96.9845 41.5627C97.0604 41.7778 97.1 42.0096 97.1 42.265C97.0967 42.5372 97.0472 42.7825 96.9449 43.0009ZM99.2148 47.1105L97.3606 44.6037C97.6839 44.4996 97.9842 44.3685 98.2547 44.2106C98.5252 44.0527 98.7562 43.8712 98.9475 43.6662C99.1389 43.4613 99.2873 43.2361 99.3929 42.9908C99.4985 42.7489 99.5513 42.4868 99.5513 42.2146C99.5513 41.8349 99.4754 41.4854 99.3203 41.1629C99.1653 40.8403 98.9343 40.5614 98.6242 40.3262C98.3174 40.0909 97.9281 39.9095 97.4662 39.7818C97.001 39.6508 96.4599 39.5869 95.8397 39.5869H92.2369V49.2173H94.5893V44.8625H95.0083L98.2217 49.2173L98.3339 48.9821L99.2148 47.1105Z" fill="white"></path>
    <path d="M103.583 42.5813L105.001 45.6929H102.121L103.583 42.5813ZM103.49 39.3857L98.8219 49.2144H100.419L101.676 46.5867H105.397L106.598 49.2144H109L104.51 39.3857H103.49Z" fill="white"></path>
    <path d="M56.119 0.568359L17.5908 11.2741V12.5442L56.119 3.79082L90.8992 12.5442V11.2741L56.119 0.568359Z" fill="#DF0914"></path>
    <path d="M17.5908 18.916V20.1895L56.119 23.1062L90.8992 20.1895V18.916L56.119 19.8871L17.5908 18.916Z" fill="#DF0914"></path>
    <path d="M17.5908 21.4609V22.7345L56.119 29.5457L90.8992 22.7345V21.4609L56.119 26.3266L17.5908 21.4609Z" fill="#DF0914"></path>
    <path d="M17.5908 24.0098V25.2799L56.119 35.989L90.8992 25.2799V24.0098L56.119 32.7665L17.5908 24.0098Z" fill="#DF0914"></path>
    <path d="M17.5908 13.8214V15.0949L56.119 10.2293L90.8992 15.0949V13.8214L56.119 7.00684L17.5908 13.8214Z" fill="#DF0914"></path>
    <path d="M17.5908 16.3673V17.6375L56.119 16.6664L90.8992 17.6375V16.3673L56.119 13.4473L17.5908 16.3673Z" fill="#DF0914"></path>
</svg>
