      <svg
        data-v-6730ba47=""
        data-v-bf67ba24=""
        width="35"
        height="35"
        viewBox="0 0 35 35"
        fill="none"
        xmlns="http://www.w3.org/2000/svg"
        preserveAspectRatio="xMidYMid meet"
        class="w-[34.91px] h-[34.91px] tw-mr-5"
      >
        <rect data-v-6730ba47="" width="34.9056" height="34.9056" fill="#DF0914"></rect>
        <path
          data-v-6730ba47=""
          d="M27.9177 24.2749C26.1581 22.5111 24.3984 20.7606 22.6255 18.9903L22.5791 18.9372L22.4794 19.0566C22.433 19.103 22.3865 19.1627 22.34 19.2091C21.5698 19.9849 20.7995 20.7606 20.0226 21.5298C19.8566 21.6956 19.5977 21.8481 19.3188 21.6558L19.1063 21.5033C18.1833 20.8535 17.2271 20.1771 16.4503 19.3284C15.7132 18.5261 14.9961 17.6708 14.3055 16.8486L13.8274 16.2783C13.5419 15.9468 13.5618 15.7147 13.8805 15.3965C14.3719 14.9058 14.8566 14.4218 15.348 13.9377L16.2577 13.0227C16.2909 12.9962 16.3241 12.9564 16.3639 12.9166L16.4901 12.784L16.4303 12.7376C16.4104 12.7243 16.3839 12.7111 16.3639 12.6912C16.3241 12.6646 16.2842 12.6381 16.2577 12.605C14.6043 10.9606 12.9576 9.30955 11.3042 7.66515C11.271 7.632 11.2444 7.59221 11.2179 7.55906L11.1515 7.47949H11.0585L11.0319 7.49938C10.7929 7.74472 10.5472 7.99005 10.3015 8.24201C9.73048 8.81225 9.13951 9.40901 8.54855 9.98587C7.95094 10.576 7.6123 11.2457 7.51269 12.0347C7.51269 12.0546 7.49941 12.0745 7.49277 12.0944C7.48613 12.1077 7.48613 12.1209 7.47949 12.1342V13.1619L7.49941 13.2614C7.51269 13.3277 7.52597 13.394 7.53925 13.4603C7.71854 14.5477 8.12358 15.6484 8.82743 16.9149C9.69064 18.4863 10.8062 20.0114 12.2404 21.5762C14.0465 23.5455 15.8327 25.0639 17.7052 26.211C18.854 26.9205 20.4077 27.756 22.2138 27.9217C22.3931 27.935 22.5591 27.9482 22.7251 27.9482C23.8008 27.9482 24.6707 27.6035 25.3745 26.9072C25.9655 26.3304 26.5631 25.7336 27.1408 25.1568L27.8646 24.4274C27.8778 24.4208 27.8845 24.4075 27.8911 24.4009L28.1169 24.4738L27.9177 24.2749ZM8.88719 11.9817C8.98015 11.6899 9.08639 11.3916 9.27232 11.186C9.70392 10.7285 10.1687 10.2842 10.6203 9.85989C10.7796 9.70075 10.9456 9.54825 11.105 9.38911L14.5777 12.8569C14.5711 12.8636 14.5645 12.8702 14.5512 12.8768C14.4848 12.9299 14.4184 12.9829 14.352 13.0492C13.8673 13.5266 13.3825 14.004 12.9044 14.4881C12.1541 15.2373 12.0944 16.2187 12.7318 17.0541C13.7876 18.42 14.8367 19.7395 16.1315 20.8667C16.9483 21.5762 17.838 22.2194 18.6016 22.7697C19.3188 23.2803 20.255 23.1742 20.9389 22.5045C21.3374 22.1133 21.7358 21.7088 22.1209 21.3176L22.3798 21.0524C22.4463 20.9861 22.506 20.9198 22.5591 20.8535L22.5923 20.8203C23.7676 22.0006 24.923 23.1543 26.0983 24.3213L25.0824 25.3225C25.0425 25.3689 24.996 25.4087 24.9562 25.4485C24.85 25.548 24.7437 25.6541 24.6441 25.7601C24.0266 26.4696 23.2099 26.7216 22.081 26.5624C20.5206 26.337 19.1926 25.5877 18.1036 24.8849C16.3042 23.7312 14.5977 22.226 12.8845 20.2965C11.6096 18.851 10.6269 17.4785 9.88321 16.0861C9.3188 15.0251 8.99343 14.13 8.86063 13.2548C8.79423 12.8437 8.75439 12.4061 8.88719 11.9817Z"
          fill="white"
        ></path>
      </svg>