<svg width="24" height="24" viewBox="0 0 24 24" fill="none" xmlns="http://www.w3.org/2000/svg">
<path fill-rule="evenodd" clip-rule="evenodd" d="M18.5587 2C20.4593 2 22 3.54074 22 5.44135V9.35785C22 10.879 21.3957 12.3379 20.3201 13.4135L12.7415 20.9921C11.3976 22.336 9.21868 22.336 7.87475 20.9921L3.00795 16.1253C1.66402 14.7813 1.66402 12.6024 3.00795 11.2585L10.5865 3.67991C11.6621 2.60428 13.121 2 14.6422 2L18.5587 2ZM18.5587 4.29423H14.6422C13.7295 4.29423 12.8541 4.6568 12.2088 5.30218L4.63021 12.8807C4.18224 13.3287 4.18224 14.055 4.63021 14.503L9.49702 19.3698C9.94499 19.8178 10.6713 19.8178 11.1193 19.3698L18.6978 11.7912C19.3432 11.1459 19.7058 10.2705 19.7058 9.35785V5.44135C19.7058 4.80781 19.1922 4.29423 18.5587 4.29423ZM15.2908 7.59606C15.7388 7.14809 16.4651 7.14809 16.9131 7.59606C17.3611 8.04404 17.3611 8.77035 16.9131 9.21833C16.4651 9.66631 15.7388 9.66631 15.2908 9.21833C14.8428 8.77035 14.8428 8.04404 15.2908 7.59606Z" fill="#C72A1B"/>
</svg>
